<svg width="1424" height="403" viewBox="0 0 1424 403" fill="none" xmlns="http://www.w3.org/2000/svg">
<path d="M110.114 80.3874L23.0982 288.896C18.1146 300.837 31.8119 311.889 42.4301 304.493L114.554 254.26C118.914 251.223 124.688 251.162 129.112 254.105L206.356 305.493C217.103 312.642 230.544 301.371 225.376 289.543L133.907 80.1903C129.347 69.7538 114.501 69.8768 110.114 80.3874Z" stroke="white" stroke-width="43.704"/>
<path d="M361.608 338.686C343.702 338.686 328.146 334.209 314.941 325.256C301.959 316.303 292.67 303.993 287.075 288.325C283.27 277.134 281.367 263.929 281.367 248.709C281.367 233.712 283.27 220.731 287.075 209.763C292.446 194.543 301.735 182.569 314.941 173.839C328.146 165.11 343.702 160.746 361.608 160.746C379.514 160.746 395.182 165.222 408.611 174.175C422.264 183.128 431.329 194.431 435.806 208.084C437.596 213.456 438.492 217.485 438.492 220.171V220.842C438.492 222.857 437.373 224.088 435.134 224.536L396.525 230.243H395.853C393.839 230.243 392.496 229.124 391.824 226.886L390.817 221.514C389.25 215.694 385.781 210.882 380.409 207.077C375.038 203.272 368.659 201.37 361.272 201.37C354.11 201.37 348.067 203.16 343.143 206.742C338.218 210.323 334.749 215.247 332.735 221.514C330.273 228.229 329.042 237.405 329.042 249.044C329.042 260.683 330.161 269.86 332.399 276.575C334.413 283.289 337.883 288.549 342.807 292.354C347.955 296.159 354.11 298.062 361.272 298.062C368.211 298.062 374.254 296.271 379.402 292.69C384.774 288.885 388.467 283.737 390.481 277.246C390.705 276.799 390.817 276.127 390.817 275.232C391.041 275.008 391.153 274.672 391.153 274.225C391.377 271.539 392.944 270.42 395.853 270.867L434.463 276.91C436.701 277.358 437.82 278.589 437.82 280.604C437.82 282.394 437.149 285.751 435.806 290.676C431.106 305.672 421.929 317.423 408.275 325.928C394.846 334.433 379.29 338.686 361.608 338.686ZM566.78 167.46C566.78 166.341 567.115 165.446 567.787 164.774C568.682 163.879 569.689 163.432 570.809 163.432H610.09C611.209 163.432 612.104 163.879 612.776 164.774C613.671 165.446 614.119 166.341 614.119 167.46V331.971C614.119 333.09 613.671 334.097 612.776 334.993C612.104 335.664 611.209 336 610.09 336H570.809C569.689 336 568.682 335.664 567.787 334.993C567.115 334.097 566.78 333.09 566.78 331.971V320.556C566.78 319.885 566.556 319.549 566.108 319.549C565.661 319.325 565.213 319.549 564.765 320.22C555.812 332.307 541.935 338.35 523.134 338.35C506.123 338.35 492.134 333.202 481.167 322.906C470.2 312.61 464.716 298.174 464.716 279.596V167.46C464.716 166.341 465.052 165.446 465.723 164.774C466.618 163.879 467.626 163.432 468.745 163.432H507.69C508.809 163.432 509.705 163.879 510.376 164.774C511.271 165.446 511.719 166.341 511.719 167.46V267.846C511.719 276.799 514.069 284.073 518.769 289.668C523.694 295.264 530.408 298.062 538.914 298.062C546.524 298.062 552.791 295.824 557.715 291.347C562.639 286.647 565.661 280.604 566.78 273.217V167.46ZM717.835 160.746C732.383 160.746 745.365 163.32 756.78 168.468C768.195 173.392 777.036 180.218 783.303 188.948C789.794 197.677 793.04 207.413 793.04 218.157V331.971C793.04 333.09 792.592 334.097 791.697 334.993C791.025 335.664 790.13 336 789.011 336H749.73C748.611 336 747.603 335.664 746.708 334.993C746.037 334.097 745.701 333.09 745.701 331.971V320.892C745.701 320.22 745.477 319.773 745.029 319.549C744.582 319.325 744.134 319.549 743.687 320.22C734.286 332.531 719.178 338.686 698.362 338.686C680.904 338.686 666.803 334.433 656.059 325.928C645.316 317.423 639.944 304.888 639.944 288.325C639.944 271.091 645.987 257.773 658.074 248.373C670.16 238.748 687.395 233.936 709.777 233.936H744.022C745.141 233.936 745.701 233.377 745.701 232.257V224.871C745.701 217.485 743.463 211.778 738.986 207.749C734.51 203.496 727.795 201.37 718.842 201.37C711.903 201.37 706.084 202.601 701.384 205.063C696.907 207.525 693.998 210.994 692.655 215.471C691.983 217.933 690.528 219.052 688.29 218.828L647.666 213.456C644.98 213.009 643.749 212.001 643.973 210.435C644.868 201.034 648.561 192.529 655.052 184.919C661.767 177.309 670.496 171.377 681.24 167.125C692.207 162.872 704.405 160.746 717.835 160.746ZM711.12 303.434C720.745 303.434 728.914 300.86 735.629 295.712C742.344 290.564 745.701 283.961 745.701 275.903V263.817C745.701 262.698 745.141 262.138 744.022 262.138H719.849C709.777 262.138 701.831 264.041 696.012 267.846C690.416 271.651 687.619 277.022 687.619 283.961C687.619 290.004 689.745 294.816 693.998 298.398C698.25 301.755 703.958 303.434 711.12 303.434ZM830.414 336C829.295 336 828.288 335.664 827.392 334.993C826.721 334.097 826.385 333.09 826.385 331.971V105.013C826.385 103.894 826.721 102.999 827.392 102.328C828.288 101.432 829.295 100.985 830.414 100.985H869.695C870.814 100.985 871.71 101.432 872.381 102.328C873.276 102.999 873.724 103.894 873.724 105.013V331.971C873.724 333.09 873.276 334.097 872.381 334.993C871.71 335.664 870.814 336 869.695 336H830.414ZM1061.11 231.922C1062.45 240.427 1062.9 249.94 1062.45 260.459C1062.23 263.145 1060.78 264.488 1058.09 264.488H954.348C953.005 264.488 952.557 265.048 953.005 266.167C953.676 270.643 954.907 275.12 956.698 279.596C962.517 292.13 974.38 298.398 992.286 298.398C1006.61 298.174 1017.91 292.354 1026.2 280.939C1027.09 279.596 1028.1 278.925 1029.22 278.925C1029.89 278.925 1030.67 279.372 1031.57 280.268L1055.74 304.105C1056.86 305.224 1057.42 306.231 1057.42 307.127C1057.42 307.574 1056.97 308.47 1056.08 309.813C1048.69 318.989 1039.18 326.152 1027.54 331.3C1015.9 336.224 1003.14 338.686 989.264 338.686C970.016 338.686 953.676 334.321 940.247 325.592C927.041 316.863 917.529 304.665 911.709 288.997C907.009 277.806 904.659 263.145 904.659 245.015C904.659 232.705 906.338 221.85 909.695 212.449C914.843 196.558 923.796 183.911 936.554 174.511C949.536 165.11 964.868 160.41 982.55 160.41C1004.93 160.41 1022.84 166.901 1036.27 179.883C1049.92 192.864 1058.2 210.211 1061.11 231.922ZM982.885 201.37C968.785 201.37 959.496 207.973 955.019 221.178C954.124 224.088 953.341 227.669 952.669 231.922C952.669 233.041 953.229 233.6 954.348 233.6H1012.43C1013.77 233.6 1014.22 233.041 1013.77 231.922C1012.65 225.431 1012.09 222.297 1012.09 222.521C1010.08 215.806 1006.5 210.658 1001.35 207.077C996.427 203.272 990.272 201.37 982.885 201.37ZM1177.58 161.081C1185.64 161.081 1192.02 162.648 1196.72 165.782C1198.51 166.677 1199.18 168.356 1198.73 170.818L1191.68 209.092C1191.46 211.778 1189.89 212.561 1186.98 211.442C1183.62 210.323 1179.7 209.763 1175.23 209.763C1173.44 209.763 1170.98 209.987 1167.84 210.435C1159.78 211.106 1152.96 214.128 1147.36 219.5C1141.77 224.647 1138.97 231.586 1138.97 240.315V331.971C1138.97 333.09 1138.52 334.097 1137.63 334.993C1136.95 335.664 1136.06 336 1134.94 336H1095.66C1094.54 336 1093.53 335.664 1092.64 334.993C1091.97 334.097 1091.63 333.09 1091.63 331.971V167.46C1091.63 166.341 1091.97 165.446 1092.64 164.774C1093.53 163.879 1094.54 163.432 1095.66 163.432H1134.94C1136.06 163.432 1136.95 163.879 1137.63 164.774C1138.52 165.446 1138.97 166.341 1138.97 167.46V180.218C1138.97 180.89 1139.19 181.337 1139.64 181.561C1140.09 181.785 1140.42 181.673 1140.65 181.226C1149.82 167.796 1162.13 161.081 1177.58 161.081ZM1321.16 197.341C1321.16 198.46 1320.72 199.467 1319.82 200.363C1319.15 201.034 1318.25 201.37 1317.13 201.37H1284.9C1283.78 201.37 1283.23 201.929 1283.23 203.048V274.225C1283.23 281.611 1284.68 287.094 1287.59 290.676C1290.72 294.257 1295.65 296.047 1302.36 296.047H1313.44C1314.56 296.047 1315.46 296.495 1316.13 297.39C1317.02 298.062 1317.47 298.957 1317.47 300.076V331.971C1317.47 334.433 1316.13 335.888 1313.44 336.336C1304.04 336.783 1297.33 337.007 1293.3 337.007C1274.72 337.007 1260.84 333.986 1251.67 327.942C1242.49 321.675 1237.79 310.036 1237.57 293.026V203.048C1237.57 201.929 1237.01 201.37 1235.89 201.37H1216.75C1215.63 201.37 1214.62 201.034 1213.73 200.363C1213.06 199.467 1212.72 198.46 1212.72 197.341V167.46C1212.72 166.341 1213.06 165.446 1213.73 164.774C1214.62 163.879 1215.63 163.432 1216.75 163.432H1235.89C1237.01 163.432 1237.57 162.872 1237.57 161.753V121.8C1237.57 120.681 1237.9 119.786 1238.57 119.114C1239.47 118.219 1240.47 117.771 1241.59 117.771H1279.2C1280.32 117.771 1281.21 118.219 1281.88 119.114C1282.78 119.786 1283.23 120.681 1283.23 121.8V161.753C1283.23 162.872 1283.78 163.432 1284.9 163.432H1317.13C1318.25 163.432 1319.15 163.879 1319.82 164.774C1320.72 165.446 1321.16 166.341 1321.16 167.46V197.341ZM1375.85 337.343C1368.24 337.343 1361.86 334.881 1356.71 329.957C1351.79 324.809 1349.33 318.43 1349.33 310.82C1349.33 302.986 1351.79 296.607 1356.71 291.683C1361.64 286.759 1368.02 284.297 1375.85 284.297C1383.68 284.297 1390.06 286.759 1394.99 291.683C1399.91 296.607 1402.37 302.986 1402.37 310.82C1402.37 318.43 1399.8 324.809 1394.65 329.957C1389.73 334.881 1383.46 337.343 1375.85 337.343Z" fill="white"/>
</svg>
